<?xml version="1.0" encoding="UTF-8" standalone="no"?>
<!DOCTYPE svg PUBLIC "-//W3C//DTD SVG 1.1//EN" "http://www.w3.org/Graphics/SVG/1.1/DTD/svg11.dtd">
<svg width="100%" height="100%" viewBox="0 0 1024 1024" version="1.1" xmlns="http://www.w3.org/2000/svg" xmlns:xlink="http://www.w3.org/1999/xlink" xml:space="preserve" xmlns:serif="http://www.serif.com/" style="fill-rule:evenodd;clip-rule:evenodd;stroke-linecap:round;stroke-linejoin:round;stroke-miterlimit:1.5;">
    <g transform="matrix(0.70654,0,0,0.592811,202.598,212.353)">
        <path d="M404.459,107.365C404.459,85.02 389.238,66.88 370.49,66.88L149.323,66.88C105.5,66.88 69.922,109.284 69.922,161.513L69.922,425.111C69.922,447.456 85.142,465.597 103.89,465.597L370.49,465.597C389.238,465.597 404.459,447.456 404.459,425.111L404.459,107.365Z" style="fill:rgb(199,0,10);"/>
    </g>
    <g transform="matrix(0.70654,0,0,0.407557,202.598,484.743)">
        <path d="M404.459,125.767C404.459,93.266 389.238,66.88 370.49,66.88L103.89,66.88C85.142,66.88 69.922,93.266 69.922,125.767L69.922,406.709C69.922,439.21 85.142,465.597 103.89,465.597L370.49,465.597C389.238,465.597 404.459,439.21 404.459,406.709L404.459,125.767Z" style="fill:rgb(34,34,34);"/>
    </g>
    <g transform="matrix(0.70654,0,0,0.185253,202.598,685.747)">
        <path d="M404.459,162.572C404.459,109.758 393.216,66.88 379.368,66.88L95.012,66.88C81.164,66.88 69.922,109.758 69.922,162.572C69.922,329.816 105.523,465.597 149.374,465.597L379.368,465.597C393.216,465.597 404.459,422.718 404.459,369.904L404.459,162.572Z" style="fill:rgb(34,34,34);"/>
    </g>
    <g transform="matrix(0.777194,0,0,0.592811,457.657,212.353)">
        <path d="M404.459,161.513C404.459,109.284 372.115,66.88 332.276,66.88L100.802,66.88C83.759,66.88 69.922,85.02 69.922,107.365L69.922,425.111C69.922,447.456 83.759,465.597 100.802,465.597L373.578,465.597C390.622,465.597 404.459,447.456 404.459,425.111L404.459,161.513Z" style="fill:rgb(34,34,34);"/>
    </g>
    <g transform="matrix(0.777194,0,0,0.407557,457.657,484.743)">
        <path d="M404.459,125.767C404.459,93.266 390.622,66.88 373.578,66.88L100.802,66.88C83.759,66.88 69.922,93.266 69.922,125.767L69.922,406.709C69.922,439.21 83.759,465.597 100.802,465.597L373.578,465.597C390.622,465.597 404.459,439.21 404.459,406.709L404.459,125.767Z" style="fill:rgb(221,221,221);"/>
    </g>
    <g transform="matrix(0.777194,0,0,0.185253,457.657,685.747)">
        <path d="M404.459,162.572C404.459,109.758 394.238,66.88 381.649,66.88L92.731,66.88C80.142,66.88 69.922,109.758 69.922,162.572L69.922,369.904C69.922,422.718 80.142,465.597 92.731,465.597L332.229,465.597C372.094,465.597 404.459,329.816 404.459,162.572L404.459,162.572Z" style="fill:rgb(221,221,221);"/>
    </g>
    <g transform="matrix(0.738636,0,0,0.738636,134.557,132.341)">
        <path d="M287.837,588.081C286.159,588.921 284.165,588.831 282.568,587.844C280.972,586.858 280,585.115 280,583.238C280,579.105 280,574.418 280,571.347C280,569.296 281.159,567.421 282.994,566.503C289.834,563.083 306.364,554.818 310.857,552.572C311.609,552.196 312.438,552 313.278,552C316.47,552 324.937,552 330.585,552C332.021,552 333.398,552.571 334.414,553.586C335.429,554.602 336,555.979 336,557.415C336,580.161 336,667.839 336,690.585C336,692.021 335.429,693.398 334.414,694.414C333.398,695.429 332.021,696 330.585,696C326.651,696 321.349,696 317.415,696C315.979,696 314.602,695.429 313.586,694.414C312.571,693.398 312,692.021 312,690.585C312,667.193 312,576 312,576C312,576 297.311,583.344 287.837,588.081Z" style="fill:white;stroke:black;stroke-width:1.35px;"/>
    </g>
</svg>
