<?xml version="1.0" encoding="UTF-8" standalone="no"?>
<!DOCTYPE svg PUBLIC "-//W3C//DTD SVG 1.1//EN" "http://www.w3.org/Graphics/SVG/1.1/DTD/svg11.dtd">
<svg width="100%" height="100%" viewBox="0 0 704 704" version="1.1" xmlns="http://www.w3.org/2000/svg" xmlns:xlink="http://www.w3.org/1999/xlink" xml:space="preserve" xmlns:serif="http://www.serif.com/" style="fill-rule:evenodd;clip-rule:evenodd;stroke-linecap:round;stroke-linejoin:round;stroke-miterlimit:1.5;">
    <g transform="matrix(0.956546,0,0,0.802574,-66.8832,-53.6758)">
        <path d="M404.459,96.783C404.459,80.279 393.216,66.88 379.368,66.88L153.556,66.88C107.397,66.88 69.922,111.544 69.922,166.559L69.922,435.693C69.922,452.197 81.164,465.597 95.012,465.597L379.368,465.597C393.216,465.597 404.459,452.197 404.459,435.693L404.459,96.783Z" style="fill:rgb(199,0,10);"/>
    </g>
    <g transform="matrix(0.956546,0,0,0.55177,-66.8832,315.098)">
        <path d="M404.459,110.376C404.459,86.37 393.216,66.88 379.368,66.88L95.012,66.88C81.164,66.88 69.922,86.37 69.922,110.376L69.922,422.1C69.922,446.106 81.164,465.597 95.012,465.597L379.368,465.597C393.216,465.597 404.459,446.106 404.459,422.1L404.459,110.376Z" style="fill:rgb(34,34,34);"/>
    </g>
    <g transform="matrix(0.956546,0,0,0.250804,-66.8832,587.226)">
        <path d="M404.459,162.572C404.459,109.758 393.216,66.88 379.368,66.88L95.012,66.88C81.164,66.88 69.922,109.758 69.922,162.572C69.922,329.816 105.523,465.597 149.374,465.597L379.368,465.597C393.216,465.597 404.459,422.718 404.459,369.904L404.459,162.572Z" style="fill:rgb(34,34,34);"/>
    </g>
    <g transform="matrix(1.0522,0,0,0.802574,278.428,-53.6758)">
        <path d="M404.459,166.559C404.459,111.544 370.39,66.88 328.427,66.88L92.731,66.88C80.142,66.88 69.922,80.279 69.922,96.783L69.922,435.693C69.922,452.197 80.142,465.597 92.731,465.597L381.649,465.597C394.238,465.597 404.459,452.197 404.459,435.693L404.459,166.559Z" style="fill:rgb(34,34,34);"/>
    </g>
    <g transform="matrix(1.0522,0,0,0.55177,278.428,315.098)">
        <path d="M404.459,110.376C404.459,86.37 394.238,66.88 381.649,66.88L92.731,66.88C80.142,66.88 69.922,86.37 69.922,110.376L69.922,422.1C69.922,446.106 80.142,465.597 92.731,465.597L381.649,465.597C394.238,465.597 404.459,446.106 404.459,422.1L404.459,110.376Z" style="fill:rgb(221,221,221);"/>
    </g>
    <g transform="matrix(1.0522,0,0,0.250804,278.428,587.226)">
        <path d="M404.459,162.572C404.459,109.758 394.238,66.88 381.649,66.88L92.731,66.88C80.142,66.88 69.922,109.758 69.922,162.572L69.922,369.904C69.922,422.718 80.142,465.597 92.731,465.597L332.229,465.597C372.094,465.597 404.459,329.816 404.459,162.572L404.459,162.572Z" style="fill:rgb(221,221,221);"/>
    </g>
    <g transform="matrix(1,0,0,1,-159,-162)">
        <path d="M285.789,589.106C284.549,589.726 283.076,589.659 281.897,588.93C280.718,588.202 280,586.914 280,585.528C280,580.566 280,573.991 280,570.472C280,568.957 280.856,567.572 282.211,566.894C288.617,563.692 306.994,554.503 311.155,552.422C311.711,552.145 312.323,552 312.944,552C316.08,552 326.273,552 332,552C333.061,552 334.078,552.421 334.828,553.172C335.579,553.922 336,554.939 336,556C336,576.681 336,671.319 336,692C336,693.061 335.579,694.078 334.828,694.828C334.078,695.579 333.061,696 332,696C327.561,696 320.439,696 316,696C314.939,696 313.922,695.579 313.172,694.828C312.421,694.078 312,693.061 312,692C312,671.163 312,576 312,576C312,576 295.009,584.496 285.789,589.106Z" style="fill:white;stroke:black;stroke-width:1px;"/>
    </g>
</svg>
